<?xml version="1.0" encoding="UTF-8" standalone="no"?>
<!-- Created with Inkscape (http://www.inkscape.org/) -->

<svg
   xmlns:dc="http://purl.org/dc/elements/1.1/"
   xmlns:cc="http://creativecommons.org/ns#"
   xmlns:rdf="http://www.w3.org/1999/02/22-rdf-syntax-ns#"
   xmlns:svg="http://www.w3.org/2000/svg"
   xmlns="http://www.w3.org/2000/svg"
   xmlns:sodipodi="http://sodipodi.sourceforge.net/DTD/sodipodi-0.dtd"
   xmlns:inkscape="http://www.inkscape.org/namespaces/inkscape"
   version="1.1"
   id="svg10"
   width="400"
   height="400"
   viewBox="0 0 400 400"
   sodipodi:docname="ubilab-escape-logo.svg"
   inkscape:version="0.92.4 (5da689c313, 2019-01-14)">
  <metadata
     id="metadata16">
    <rdf:RDF>
      <cc:Work
         rdf:about="">
        <dc:format>image/svg+xml</dc:format>
        <dc:type
           rdf:resource="http://purl.org/dc/dcmitype/StillImage" />
        <dc:title></dc:title>
      </cc:Work>
    </rdf:RDF>
  </metadata>
  <defs
     id="defs14" />
  <sodipodi:namedview
     pagecolor="#ffffff"
     bordercolor="#666666"
     borderopacity="1"
     objecttolerance="10"
     gridtolerance="10"
     guidetolerance="10"
     inkscape:pageopacity="0"
     inkscape:pageshadow="2"
     inkscape:window-width="1920"
     inkscape:window-height="1027"
     id="namedview12"
     showgrid="false"
     inkscape:zoom="2"
     inkscape:cx="78.302264"
     inkscape:cy="209.6581"
     inkscape:window-x="-8"
     inkscape:window-y="-8"
     inkscape:window-maximized="1"
     inkscape:current-layer="svg10" />
  <path
     style="fill:#006400;stroke-width:1.33333337"
     d="M 182,375.94788 C 131.83972,368.1286 91.874268,330.77757 79.870509,280.49937 c -3.715644,-15.56312 -3.061797,-43.64969 1.377368,-59.16604 2.881316,-7.51105 4.759754,-14.15218 8.541409,-21.8954 3.781655,-7.74323 9.466528,-16.58856 14.210714,-22.258 l 5.33333,-6.32501 V 158.76079 146.66667 H 116 h 6.66667 v 15.10092 c 0,14.1515 -0.19815,15.28705 -3.15163,18.0617 -1.73339,1.62844 -5.07068,5.63303 -7.41618,8.8991 l -4.26455,5.93828 7.08284,-0.009 c 6.92082,-0.009 7.26586,-0.1971 15.08285,-8.23397 8.36949,-8.60493 26.32623,-21.08991 30.33333,-21.09023 1.89975,-1.3e-4 2.33334,1.19491 2.33334,6.43115 v 6.43132 l -9.38388,6.41172 c -11.21874,7.66541 -20.86907,18.14489 -26.58509,28.86925 l -4.18741,7.85676 h 6.60586 c 6.46558,0 6.69649,-0.14122 10.87337,-6.65032 8.67436,-13.51782 24.30736,-24.83597 41.25248,-29.86642 9.43457,-2.80083 28.08143,-2.80083 37.516,0 28.88731,8.57569 48.96189,32.00921 52.699,61.51674 l 0.88655,7 h 5.82822 c 5.47479,0 5.82683,-0.22236 5.80508,-3.66666 -0.0508,-8.0498 -4.21097,-22.90579 -9.31312,-33.25738 -6.06576,-12.30665 -18.58145,-26.22222 -30.3304,-33.72286 -6.86196,-4.38074 -7,-4.59591 -7,-10.91098 0,-3.83154 0.59976,-6.44212 1.48003,-6.44212 4.7526,0 19.00876,9.71427 29.27449,19.94788 12.49751,12.45839 19.0283,22.92354 24.88766,39.88072 3.09445,8.95546 3.52516,12.32323 3.60288,28.1714 0.0705,14.38636 -0.43948,19.67299 -2.54056,26.33334 L 291.40897,288 h -7.03781 c -3.87081,0 -7.03008,-0.15 -7.02063,-0.33333 0.009,-0.18334 1.20947,-4.13679 2.66667,-8.78546 1.45721,-4.64868 2.64947,-8.99868 2.64947,-9.66666 0,-0.668 -2.65108,-1.21455 -5.8913,-1.21455 h -5.89129 l -2.85765,8.58725 c -7.51754,22.5902 -26.83775,40.65018 -49.91787,46.66179 -10.477,2.72891 -12.77523,1.77652 -12.77523,-5.29407 v -5.734 l 6.76487,-1.4508 c 34.60973,-7.42246 55.32736,-46.17728 41.88463,-78.35025 C 246.39905,214.26939 230.27787,200.88076 211,196.72276 l -4.33333,-0.93464 v 7.51796 c 0,4.95043 0.35701,6.35943 1.41162,6.64553 2.24349,0.60864 11.96068,6.23102 14.88004,11.95343 3.3602,6.58655 3.62842,17.13689 0.58524,23.02172 -2.10321,4.06717 -2.02109,4.60515 2.64118,17.30213 2.64654,7.20744 5.58092,15.50444 6.52084,18.43778 0.93992,2.93333 2.12986,6.38333 2.64433,7.66666 0.87705,2.18784 -1.31824,2.33334 -35.20727,2.33334 -19.87846,0 -36.14265,-0.20607 -36.14265,-0.45794 0,-0.47306 1.78319,-5.53324 9.87051,-28.00958 4.56217,-12.67927 4.65121,-13.27855 2.57053,-17.30212 -3.07267,-5.94188 -2.754,-16.41638 0.70576,-23.19806 2.69489,-5.28244 11.01311,-10.59787 14.36736,-12.36564 0.81717,-0.43067 1.75057,-2.7241 2.02383,-6.66749 0.53533,-7.72556 0.67794,-7.67533 -11.29427,-3.97749 -15.04239,4.64612 -28.91117,17.24116 -35.54788,32.2831 -14.48517,32.83024 5.85305,72.21687 41.20596,79.79872 l 6.76487,1.4508 v 6.67338 6.67338 L 189,324.69067 c -26.29889,-4.07043 -48.64629,-22.9211 -57.02643,-48.10342 L 129.11592,268 h -5.99723 -5.99724 l 0.93465,4.33333 c 2.88809,13.39012 11.64438,29.13832 22.88058,41.15072 l 6.21925,6.6489 -4.67717,4.67717 -4.67717,4.67719 -8.77486,-9.30182 C 112.54445,302.7134 103.764,281.78712 103.49379,259.33333 L 103.33333,246 109.66667,245.59361 116,245.18723 v 4.41598 c 0,4.40016 0.021,4.41434 5.86177,3.9498 l 5.86177,-0.46621 0.92695,-7.41909 c 0.50983,-4.08051 1.22794,-8.20343 1.59579,-9.16206 0.51772,-1.34914 -2.35886,-1.82912 -12.7316,-2.1243 L 104.11425,234 l 3.71718,-10.66667 c 2.04446,-5.86666 4.18294,-11.71666 4.7522,-13 0.9087,-2.0486 0.2239,-2.33333 -5.61174,-2.33333 h -6.64676 l -2.847295,7.66667 c -12.591283,33.90341 -7.408807,72.63773 13.663245,102.12037 6.04286,8.45477 17.3274,19.84869 23.94645,24.17855 l 3.75422,2.45582 8.98721,-8.91836 8.98723,-8.91834 7.76306,3.4332 c 13.21059,5.84234 23.72998,7.66817 40.08742,6.95789 12.42982,-0.53973 16.3665,-1.29609 25.81228,-4.9594 l 11.14562,-4.32255 9.08112,9.01155 9.08114,9.01153 6.68208,-4.90509 c 6.72737,-4.93836 17.65932,-16.16861 22.89056,-23.51521 l 2.82212,-3.9633 h -7.05734 c -6.92585,0 -7.22574,0.16712 -16.09758,8.97099 l -9.04026,8.97097 -4.71592,-4.71592 -4.71592,-4.71592 9.38938,-9.69216 c 5.16416,-5.33069 9.38938,-10.24546 9.38938,-10.92173 0,-0.67848 6.79939,-1.22956 15.17076,-1.22956 h 15.17078 l 2.73757,-7.66667 c 7.07825,-19.82289 7.28673,-21.10086 6.55397,-40.17513 -1.28182,-33.36703 -12.11477,-57.58193 -35.25085,-78.79631 -16.37081,-15.01102 -39.19821,-25.81344 -58.32212,-27.59925 l -8.72677,-0.81492 v 6.00287 6.00286 l 7.7769,0.81284 c 11.91572,1.24544 12.2231,1.48659 12.2231,9.58902 v 7.07 l -7,-1.8635 c -8.93794,-2.3794 -30.36228,-2.42861 -39.3761,-0.0904 l -6.95724,1.80463 v -6.99537 c 0,-8.0186 0.3238,-8.27066 12.2231,-9.51438 l 7.7769,-0.81284 v -5.81006 -5.81006 h -5.12005 c -11.57748,0 -34.31128,7.82787 -46.37077,15.96672 -3.28691,2.21831 -6.60443,4.03328 -7.37226,4.03328 -0.95173,0 -1.21248,-11.13978 -0.81926,-35 0.52318,-31.745643 0.8457,-35.733841 3.46874,-42.892363 9.90312,-27.026524 34.40776,-44.71067 62.02115,-44.758475 18.68987,-0.03236 36.53609,7.542151 48.60739,20.630541 14.97874,16.240798 18.9184,29.635707 18.9184,64.322907 v 22.60483 l 5,3.55887 5,3.55888 0.37954,-27.01259 C 277.50601,97.620277 276.24065,88.813301 268.97976,74.203176 258.32465,52.763315 237.73572,37.168945 214,32.560668 c -17.13592,-3.326931 -37.26981,-0.02131 -51.87369,8.516708 -10.24192,5.987841 -24.39687,20.137609 -29.20972,29.199013 -7.8819,14.839716 -9.22706,20.81479 -9.91847,44.056941 L 122.35357,136 h -6.51012 -6.51012 v -19.78672 c 0,-22.294631 2.27398,-34.228783 9.09788,-47.746844 11.43835,-22.65924 29.43063,-38.132137 54.23546,-46.641087 9.40369,-3.225808 18.05519,-4.761379 27.28914,-4.763904 9.26297,-0.0025 17.97383,1.538096 27.37752,4.763904 25.6682,8.805118 43.90084,24.89096 54.85843,48.399134 7.63832,16.387096 8.43328,22.321146 8.4552,63.115357 l 0.0197,36.67319 7.5506,9.99348 c 8.84662,11.7088 16.70356,27.71434 20.75566,42.28178 2.38761,8.5835 3.57833,21.07395 3.58114,31.71171 0.003,10.63924 -0.98073,22.80007 -3.56489,31.718 -10.3032,35.55632 -32.43503,62.31765 -64.98917,78.58355 -8.6886,4.3413 -15.36512,6.9426 -21.47135,8.36562 -1.39076,0.32411 -4.92865,1.20762 -7.86199,1.96336 -7.69929,1.98364 -33.31821,2.77463 -42.66666,1.31735 z m 11.33333,-19.09468 v -5.81345 l -7.0563,-0.72828 c -3.88098,-0.40055 -11.51736,-2.22446 -16.96975,-4.05312 l -9.91343,-3.32486 -4.26733,3.53326 c -2.34703,1.94329 -4.31064,3.95517 -4.36359,4.47086 -0.29157,2.83984 27.17503,11.50931 36.90374,11.64818 l 5.66666,0.0809 z m 31.33334,4.04975 c 5.23146,-1.2462 20.01764,-6.4634 21.0026,-7.41062 0.55142,-0.5303 -0.94858,-2.84321 -3.33334,-5.1398 L 238,344.17693 226.84893,347.4218 c -6.13308,1.78468 -13.18308,3.24487 -15.66666,3.24487 -4.47728,0 -4.5156,0.052 -4.5156,6.13153 v 6.13155 l 7.66666,-0.69579 c 4.21667,-0.38268 8.86667,-0.98163 10.33334,-1.33101 z m -11.47238,-94.56962 c -8.07665,-21.81821 -7.78149,-20.15729 -4.30125,-24.2033 4.70227,-5.46671 4.27513,-12.91003 -0.99535,-17.34484 -2.31077,-1.94439 -5.75978,-3.45186 -7.89769,-3.45186 -2.13791,0 -5.58692,1.50747 -7.89769,3.45186 -5.28852,4.44998 -5.68487,11.78945 -0.94212,17.44584 2.5664,3.0608 2.92104,4.39529 1.88744,7.1023 -0.7,1.83334 -3.29619,8.88334 -5.76928,15.66667 l -4.49654,12.33333 h 17.24223 17.24221 z m -50.775,-129.50877 c 25.52628,-8.06375 58.00888,-7.64035 78.10919,1.01812 2.276,0.98041 5.78819,2.45403 7.80485,3.27469 L 252,142.60949 V 120.88008 C 252,95.835916 250.67635,89.619632 243.00569,78.640079 230.01344,60.043323 206.52008,52.210107 185.242,58.245847 c -9.52446,2.701707 -17.98699,8.163495 -24.65896,15.2927 -2.246,2.479532 -5.846,8.097713 -8,12.484846 -3.84915,7.839696 -3.92392,8.409172 -4.35625,33.178397 -0.40558,23.23592 -0.27132,25.03321 1.72109,23.04081 1.18853,-1.18853 6.80067,-3.62665 12.47141,-5.41804 z"
     id="path108"
     inkscape:connector-curvature="0"
     sodipodi:nodetypes="cscsccccccsccccccscsccssccscscsssssscccsccsscssscssccssccsscsscccscssscccsscccsccccsscccsscccscccscsscccccssccccscsccccssscsssscccsscsccsscccsssssssscccsssscscccsssassscscascccccccccsccccscccsssccssscscccscccsscccssscsscs" />
</svg>
